<svg xmlns="http://www.w3.org/2000/svg" width="19.468" height="19.468" viewBox="0 0 19.468 19.468"><path d="M8.415,12.925a16.384,16.384,0,0,0,7.127,7.127l2.379-2.379a1.075,1.075,0,0,1,1.1-.26,12.337,12.337,0,0,0,3.861.616,1.085,1.085,0,0,1,1.082,1.082v3.775a1.085,1.085,0,0,1-1.082,1.082A18.385,18.385,0,0,1,4.5,5.582,1.085,1.085,0,0,1,5.582,4.5H9.367a1.085,1.085,0,0,1,1.082,1.082,12.287,12.287,0,0,0,.616,3.861,1.085,1.085,0,0,1-.27,1.1L8.415,12.925Z" transform="translate(-4.5 -4.5)" fill="#393939"/></svg>