<svg xmlns="http://www.w3.org/2000/svg" width="19.799" height="18.278" viewBox="0 0 19.799 18.278"><g transform="translate(-3.382 -4.504)"><path d="M8.044,4.507c2.576,0,4.762,1.329,4.762,3.9v.762h0V22.692a.094.094,0,0,1-.181.033v0a4.477,4.477,0,0,0-3.919-3.357A6.044,6.044,0,0,0,4.272,21.13a.513.513,0,0,1-.314.138H3.744c-.176,0-.362-.129-.362-.29V7.178C3.377,5.65,5.468,4.507,8.044,4.507Z" transform="translate(0 -0.002)" fill="#fff"/><path d="M-7073.523-4082.222a.092.092,0,0,1-.095-.093V-4096.6c0-2.012,1.355-3.437,3.625-3.812v4.656l1.521-1.083,1.477,1.083v-4.534c1.731.418,2.8,1.358,2.8,2.453v13.8c0,.167-.191.291-.362.291h-.213a.548.548,0,0,1-.314-.138,6.172,6.172,0,0,0-4.12-1.776c-.1,0-.208,0-.315.01a4.517,4.517,0,0,0-3.918,3.357A.088.088,0,0,1-7073.523-4082.222Z" transform="translate(7087.376 4105)" fill="#fff"/></g></svg>