<svg xmlns="http://www.w3.org/2000/svg" width="19.799" height="18.283" viewBox="0 0 19.799 18.283"><g transform="translate(-3.382 -4.5)"><path d="M8.044,4.507c2.576,0,4.762,1.329,4.762,3.9v.762h0V22.692a.094.094,0,0,1-.181.033v0a4.477,4.477,0,0,0-3.919-3.357A6.044,6.044,0,0,0,4.272,21.13a.513.513,0,0,1-.314.138H3.744c-.176,0-.362-.129-.362-.29V7.178C3.377,5.65,5.468,4.507,8.044,4.507Z" transform="translate(0 -0.002)" fill="#393939"/><path d="M23.465,4.5C20.889,4.5,18.7,5.829,18.7,8.4v.762h0V22.685a.094.094,0,0,0,.181.033v0A4.524,4.524,0,0,1,22.8,19.357a6.034,6.034,0,0,1,4.433,1.767.542.542,0,0,0,.314.138h.214c.176,0,.362-.129.362-.29V7.167C28.131,5.643,26.041,4.5,23.465,4.5Z" transform="translate(-4.945 0)" fill="#393939"/></g></svg>