<svg xmlns="http://www.w3.org/2000/svg" width="18.274" height="18.278" viewBox="0 0 18.274 18.278"><g transform="translate(-4.5 -4.5)"><path d="M28.013,4.5h-1A1.942,1.942,0,0,1,28.1,6.532V20.746c0,1.052-.333,1.775-1.085,2.032h1a2.035,2.035,0,0,0,2.037-2.032V6.532A2.035,2.035,0,0,0,28.013,4.5Z" transform="translate(-7.277)" fill="#fff"/><path d="M17.9,4.51c-.067,0-.133-.01-.2-.01H6.532A2.037,2.037,0,0,0,4.5,6.532V20.746a2.037,2.037,0,0,0,2.032,2.032H17.7c.067,0,.133,0,.2-.01a2.039,2.039,0,0,0,1.832-2.022V6.532A2.047,2.047,0,0,0,17.9,4.51Zm-6.543,9.127L8.688,12.114,6.023,13.637V6.023h5.33Z" fill="#fff"/></g></svg>