<svg xmlns="http://www.w3.org/2000/svg" xmlns:xlink="http://www.w3.org/1999/xlink" width="1920" height="1920" viewBox="0 0 1920 1920"><defs><filter id="a" x="0" y="0" width="1920" height="1920" filterUnits="userSpaceOnUse"><feOffset dy="64" input="SourceAlpha"/><feGaussianBlur stdDeviation="106.667" result="b"/><feFlood flood-opacity="0.341"/><feComposite operator="in" in2="b"/><feComposite in="SourceGraphic"/></filter></defs><g transform="translate(21.333 -64)"><g transform="matrix(1, 0, 0, 1, -21.33, 64)" filter="url(#a)"><circle cx="640" cy="640" r="640" transform="translate(320 256)" fill="#fc0f64"/></g><path d="M-134298.875-77072.859l-182.656-176.742-174.937,169.32a13.26,13.26,0,0,1-18.359,0l-36.8-35.562a12.317,12.317,0,0,1-3.812-8.891,12.317,12.317,0,0,1,3.813-8.891l220.063-212.937a13.256,13.256,0,0,1,10.078-3.648,13.209,13.209,0,0,1,10.094,3.656l227.766,220.352a12.256,12.256,0,0,1,3.813,8.891,12.3,12.3,0,0,1-3.812,8.906l-36.781,35.555a13.234,13.234,0,0,1-9.2,3.68,13.217,13.217,0,0,1-9.266-3.672Z" transform="translate(135419.578 78160.914)" fill="#fff"/></g></svg>