<svg xmlns="http://www.w3.org/2000/svg" width="29.058" height="17.435" viewBox="0 0 29.058 17.435"><path d="M28.257,8.55,15.592,4.659a3.627,3.627,0,0,0-2.124,0L.8,8.55a1.069,1.069,0,0,0,0,2.07L3.01,11.3A3.578,3.578,0,0,0,2.2,13.428a1.4,1.4,0,0,0-.116,2.407L.923,21.051a.726.726,0,0,0,.709.884H4.18a.726.726,0,0,0,.709-.884L3.73,15.835a1.4,1.4,0,0,0-.082-2.385,2.142,2.142,0,0,1,.939-1.667l8.88,2.728a3.631,3.631,0,0,0,2.124,0L28.257,10.62a1.069,1.069,0,0,0,0-2.07ZM16.018,15.9a5.083,5.083,0,0,1-2.978,0L6.456,13.878l-.644,5.152c0,1.605,3.9,2.906,8.718,2.906s8.718-1.3,8.718-2.906L22.6,13.877,16.018,15.9Z" transform="translate(0 -4.5)" fill="#5d5d5d"/></svg>