<svg xmlns="http://www.w3.org/2000/svg" width="169.365" height="169.365" viewBox="0 0 169.365 169.365"><g transform="translate(-11664 -542)"><rect width="169.366" height="169.366" transform="translate(11664 542)" fill="#fc0f64"/><g transform="translate(11724 600)"><path d="M14.311,6.559a7.752,7.752,0,1,0,7.752,7.752,7.761,7.761,0,0,0-7.752-7.752m0-6.559A14.311,14.311,0,1,1,0,14.311,14.311,14.311,0,0,1,14.311,0Z" transform="translate(10.733)" fill="#fff"/><path d="M49.89,14.908a11.9,11.9,0,0,0-3.919-4.371A24.3,24.3,0,0,0,32.045,6.559a24.3,24.3,0,0,0-13.927,3.977A11.9,11.9,0,0,0,14.2,14.908H49.89m6.622,6.559H7.576A12.808,12.808,0,0,1,7,17.679c0-4.722,2.6-9.162,7.335-12.5A30.883,30.883,0,0,1,32.045,0,30.883,30.883,0,0,1,49.754,5.178c4.73,3.339,7.335,7.779,7.335,12.5a12.809,12.809,0,0,1-.576,3.787Z" transform="translate(-7 31.008)" fill="#fff"/></g></g></svg>