<svg xmlns="http://www.w3.org/2000/svg" width="20.125" height="23" viewBox="0 0 20.125 23"><path d="M19.586,21.563h-.9V1.078A1.078,1.078,0,0,0,17.609,0H2.516A1.078,1.078,0,0,0,1.438,1.078V21.563h-.9A.539.539,0,0,0,0,22.1V23H20.125v-.9A.539.539,0,0,0,19.586,21.563ZM5.75,3.414a.539.539,0,0,1,.539-.539h1.8a.539.539,0,0,1,.539.539v1.8a.539.539,0,0,1-.539.539h-1.8a.539.539,0,0,1-.539-.539Zm0,4.313a.539.539,0,0,1,.539-.539h1.8a.539.539,0,0,1,.539.539v1.8a.539.539,0,0,1-.539.539h-1.8a.539.539,0,0,1-.539-.539Zm2.336,6.648h-1.8a.539.539,0,0,1-.539-.539v-1.8a.539.539,0,0,1,.539-.539h1.8a.539.539,0,0,1,.539.539v1.8A.539.539,0,0,1,8.086,14.375ZM11.5,21.563H8.625V17.789a.539.539,0,0,1,.539-.539h1.8a.539.539,0,0,1,.539.539Zm2.875-7.727a.539.539,0,0,1-.539.539h-1.8a.539.539,0,0,1-.539-.539v-1.8a.539.539,0,0,1,.539-.539h1.8a.539.539,0,0,1,.539.539Zm0-4.312a.539.539,0,0,1-.539.539h-1.8a.539.539,0,0,1-.539-.539v-1.8a.539.539,0,0,1,.539-.539h1.8a.539.539,0,0,1,.539.539Zm0-4.312a.539.539,0,0,1-.539.539h-1.8a.539.539,0,0,1-.539-.539v-1.8a.539.539,0,0,1,.539-.539h1.8a.539.539,0,0,1,.539.539Z" fill="#5d5d5d"/></svg>