<svg xmlns="http://www.w3.org/2000/svg" width="23.965" height="23.965" viewBox="0 0 23.965 23.965"><path d="M23.213,7.489,18.726,3A2.568,2.568,0,0,0,16.91,2.25H2.568A2.568,2.568,0,0,0,0,4.818v18.83a2.568,2.568,0,0,0,2.568,2.568H21.4a2.568,2.568,0,0,0,2.568-2.568V9.3a2.568,2.568,0,0,0-.752-1.816Zm-11.23,15.3a3.424,3.424,0,1,1,3.424-3.424A3.424,3.424,0,0,1,11.982,22.791ZM17.118,6.5v5.377a.642.642,0,0,1-.642.642H4.065a.642.642,0,0,1-.642-.642V6.315a.642.642,0,0,1,.642-.642H16.29a.642.642,0,0,1,.454.188l.186.186a.642.642,0,0,1,.188.454Z" transform="translate(0 -2.25)" fill="#fff"/></svg>